<?xml version="1.0" standalone="no"?>
<!DOCTYPE svg PUBLIC "-//W3C//DTD SVG 20010904//EN"
 "http://www.w3.org/TR/2001/REC-SVG-20010904/DTD/svg10.dtd">
<svg version="1.0" xmlns="http://www.w3.org/2000/svg"
 width="51.000000pt" height="51.000000pt" viewBox="0 0 51.000000 51.000000"
 preserveAspectRatio="xMidYMid meet">

<g transform="translate(0.000000,51.000000) scale(0.100000,-0.100000)"
fill="#000000" stroke="none">
<path d="M105 391 c82 -49 113 -135 84 -229 -2 -8 6 -20 18 -28 21 -15 22 -14
34 42 12 52 16 58 53 75 46 21 146 25 178 8 11 -6 22 -9 24 -6 13 13 -96 50
-151 51 -33 1 -66 5 -73 9 -7 5 -21 6 -31 2 -14 -4 -25 3 -40 23 -11 17 -41
39 -66 51 -55 26 -70 27 -30 2z"/>
<path d="M152 225 c-22 -28 -22 -30 -6 -42 24 -18 36 -3 32 38 l-3 34 -23 -30z"/>
</g>
</svg>
